<svg width="32" height="32" viewBox="0 0 32 32" fill="none" xmlns="http://www.w3.org/2000/svg">
<path d="M5.1973 15.9257C5.1973 15.9257 5.13682 5.11318 10.3822 5.08496C10.3822 5.08496 21.1068 7.40567 17.9878 15.0839C17.9878 15.0839 14.8712 13.4711 12.9722 13.5518C12.9722 13.5518 11.0725 20.7187 18.3749 21.3082C24.8475 21.8307 26.8554 16.0047 26.8554 16.0047C26.8554 19.5858 18.3749 26.8495 10.9289 26.9366C10.2419 26.9446 5.19085 27.3317 5.1981 15.9313" fill="#492561"/>
<path fill-rule="evenodd" clip-rule="evenodd" d="M13.1992 5.25688C12.4316 5.10931 11.264 5.00529 10.377 5.08996C12.5324 5.66087 14.5958 6.72123 16.157 8.34525C19.2494 11.561 19.1969 15.9001 15.128 17.8224C14.7845 17.9837 14.716 18.1571 14.9934 18.4522C16.4892 20.1972 19.5445 20.8108 22.2716 19.973C24.169 19.3892 26.4534 17.6724 26.8501 16.0033C26.8501 15.9404 26.8501 15.8767 26.8453 15.8146C26.7469 14.1462 25.3132 12.5085 24.1924 11.3683C22.8457 9.99345 19.1816 6.40191 13.1992 5.25688Z" fill="#DD591B"/>
</svg>
